HIERARCHY
ROOT Hips
{
    OFFSET 0.0 0.0 0.0
    CHANNELS 6 Xposition Yposition Zposition Zrotation Xrotation Yrotation
    JOINT LeftHipJoint
    {
        OFFSET 0.1 0.0 0.0
        CHANNELS 3 Zrotation Xrotation Yrotation
        JOINT LeftUpLeg
        {
            OFFSET 118.57573343412817 0.0 0.0
            CHANNELS 3 Zrotation Xrotation Yrotation
            JOINT LeftLeg
            {
                OFFSET 0.0 0.0 -390.9609744770942
                CHANNELS 3 Zrotation Xrotation Yrotation
                JOINT LeftFoot
                {
                    OFFSET 0.0 0.0 -383.88719378952385
                    CHANNELS 3 Zrotation Xrotation Yrotation
                    End Site
                    {
                        OFFSET 0.0 -0.1 0.0
                    }
                }
            }
        }
    }
    JOINT LowerBack
    {
        OFFSET 0.0 0.0 0.1
        CHANNELS 3 Zrotation Xrotation Yrotation
        JOINT Spine
        {
            OFFSET 0.0 0.0 220.00867581707212
            CHANNELS 3 Zrotation Xrotation Yrotation
            JOINT Spine1
            {
                OFFSET 0.0 0.0 255.68899916212138
                CHANNELS 3 Zrotation Xrotation Yrotation
                JOINT LeftShoulder
                {
                    OFFSET 0.1 0.0 0.0
                    CHANNELS 3 Zrotation Xrotation Yrotation
                    JOINT LeftArm
                    {
                        OFFSET 146.45439717833452 0.0 0.0
                        CHANNELS 3 Zrotation Xrotation Yrotation
                        JOINT LeftForeArm
                        {
                            OFFSET 256.6059610644937 0.0 0.0
                            CHANNELS 3 Zrotation Xrotation Yrotation
                            JOINT LeftHand
                            {
                                OFFSET 233.48183328015085 0.0 0.0
                                CHANNELS 3 Zrotation Xrotation Yrotation
                                End Site
                                {
                                    OFFSET 0.1 0.0 0.0
                                }
                            }
                        }
                    }
                }
                JOINT Neck
                {
                    OFFSET 0.0 0.0 0.1
                    CHANNELS 3 Zrotation Xrotation Yrotation
                    JOINT Neck1
                    {
                        OFFSET 0.0 0.0 109.49850314466404
                        CHANNELS 3 Zrotation Xrotation Yrotation
                        End Site
                        {
                            OFFSET 0.0 0.0 113.87041742595831
                        }
                    }
                }
                JOINT RightShoulder
                {
                    OFFSET -0.1 0.0 0.0
                    CHANNELS 3 Zrotation Xrotation Yrotation
                    JOINT RightArm
                    {
                        OFFSET -146.45439717833452 0.0 0.0
                        CHANNELS 3 Zrotation Xrotation Yrotation
                        JOINT RightForeArm
                        {
                            OFFSET -256.6059610644937 0.0 0.0
                            CHANNELS 3 Zrotation Xrotation Yrotation
                            JOINT RightHand
                            {
                                OFFSET -233.48183328015085 0.0 0.0
                                CHANNELS 3 Zrotation Xrotation Yrotation
                                End Site
                                {
                                    OFFSET -0.1 0.0 0.0
                                }
                            }
                        }
                    }
                }
            }
        }
    }
    JOINT RightHipJoint
    {
        OFFSET -0.1 0.0 0.0
        CHANNELS 3 Zrotation Xrotation Yrotation
        JOINT RightUpLeg
        {
            OFFSET -118.57573343412817 0.0 0.0
            CHANNELS 3 Zrotation Xrotation Yrotation
            JOINT RightLeg
            {
                OFFSET 0.0 0.0 -390.9609744770942
                CHANNELS 3 Zrotation Xrotation Yrotation
                JOINT RightFoot
                {
                    OFFSET 0.0 0.0 -383.88719378952385
                    CHANNELS 3 Zrotation Xrotation Yrotation
                    End Site
                    {
                        OFFSET 0.0 -0.1 0.0
                    }
                }
            }
        }
    }
}
MOTION
Frames: 5
Frame Time: 0.03333333333333333
0.0 0.0 788.8514566978998 27.185746499659764 0.491184683574196 2.4727982630246017 0.0 0.0 -1.0560435465796834e-16 0.5180210897672017 -17.024375004923 -2.5527727585299966 -2.4552495709848405 29.590333201475563 1.1042308691223715 0.0 0.0 -3.975693351829396e-16 0.0 0.0 -1.0560435465796834e-16 0.3033723127246858 -10.22369342006338 5.693706529724956 5.546387804214489 -6.148909880146834e-16 -3.6825065615853434e-16 -6.361109362927033e-15 1.9878466759146977e-16 1.1034765745125397e-32 -19.502044553858415 26.74604123908233 66.40209747197433 -25.57801320858146 -1.0547390453124315e-15 5.544587424825296e-15 0.0 0.0 -1.4908850069360234e-15 -6.361109362927033e-15 1.9878466759146977e-16 1.1034765745125397e-32 -15.680038801073259 -5.294786173231722 -0.4868974787594081 -6.361109362927033e-15 1.9878466759146977e-16 1.1034765745125397e-32 43.81605750556265 -54.5421151259408 9.367607515639971 89.39683195222833 2.213447182032346e-15 6.758719699858141e-15 1.5902773407317584e-15 0.0 0.0 0.0 0.0 -1.0560435465796834e-16 0.31144557762332714 -10.577142946035451 2.2303175790912615 0.27035430002345867 27.364117860055785 -0.8244926819190679 0.0 0.0 0.0
0.0 0.0 788.8514566978998 27.27239822235061 0.4356098593302408 2.5562874834216 0.0 0.0 6.833222948456774e-17 0.4977231405865861 -16.84122985574792 -2.67225433862712 -2.4762383250671958 29.413783756201745 1.1425564512128876 0.0 0.0 3.975693351829396e-16 0.0 0.0 6.833222948456774e-17 0.2960710274384408 -10.267947338632746 5.7142356182114655 5.538618137449235 1.2297320361058471e-15 7.365846936954554e-16 0.0 0.0 0.0 -19.010161884474464 26.806410493332077 66.25047903784994 -25.95538197784608 3.5709923431491583e-16 4.646688987685193e-15 0.0 0.0 -4.472655020808071e-16 0.0 0.0 0.0 -15.77171421025357 -5.100797473680761 -0.6618345019110151 0.0 0.0 0.0 44.15186152285646 -54.848547285169644 9.817505875001904 89.43507452836464 -4.520103447843861e-15 4.475754366350774e-15 -1.5902773407317584e-15 0.0 0.0 0.0 0.0 6.833222948456774e-17 0.2972972899037425 -10.400156568179815 2.131743821524223 0.24400266961517408 27.274647723260365 -0.7636989784934091 0.0 0.0 0.0
0.0 0.0 788.8514566978998 27.32302179214869 0.411690616590819 2.5923369433015138 -1.4547786871014927e-34 9.93923337957349e-17 1.6772456328030264e-16 0.48452965571749645 -16.733593500326574 -2.7220736574378477 -2.48609199599493 29.42903830349668 1.1768092726750943 0.0 0.0 3.975693351829396e-16 -1.4547786871014927e-34 9.93923337957349e-17 1.6772456328030264e-16 0.292687031654689 -10.35650062665546 5.760420304024531 5.555386323284392 3.853313808114518e-17 7.942044462106956e-16 -6.896728590703373e-34 1.987846675914698e-16 3.975693351829396e-16 -18.580177320506287 26.78270266610374 66.12959835178775 -26.222570821483956 -2.1263379276568217e-15 4.747702369492431e-15 -3.975693351829397e-16 1.0862347530357812e-32 -3.13085851456565e-15 -6.896728590703373e-34 1.987846675914698e-16 3.975693351829396e-16 -15.833941606600321 -4.935921237426038 -0.7080532381998382 -6.896728590703373e-34 1.987846675914698e-16 3.975693351829396e-16 44.66139815536382 -54.948812627843935 10.33568517421682 89.17168337486991 4.465352997733868e-15 4.530379115785691e-15 0.0 0.0 0.0 -1.4547786871014927e-34 9.93923337957349e-17 1.6772456328030264e-16 0.29252800903818493 -10.444262541669566 2.109097008383963 0.2511808919535933 27.442159411211193 -0.7496900383855052 0.0 0.0 0.0
0.0 0.0 788.8514566978998 27.4219886995965 0.33475884474815343 2.672102837333165 0.0 0.0 -1.6151254241806922e-16 0.4447171017619192 -16.672297493748037 -2.8355557303515617 -2.4799956149744773 29.477810486862566 1.2283932195219256 0.0 0.0 -3.975693351829396e-16 0.0 0.0 -1.6151254241806922e-16 0.27084101030186253 -10.407095843272907 5.726208198908101 5.515183027556554 1.4927995899038292e-15 -2.0620537848884907e-15 0.0 0.0 0.0 -18.717101362721262 26.91509365267558 66.27022735760995 -26.34440312937309 1.715202161851092e-15 -2.9671564786215264e-15 0.0 0.0 -5.466578358765419e-16 0.0 0.0 0.0 -15.752806141068424 -4.688330627086227 -0.7317724276802768 0.0 0.0 0.0 45.21688330603379 -55.0488757552086 10.857565158055047 89.17261503631619 -8.865826681442971e-15 -1.8056418264035464e-14 -1.5902773407317584e-15 0.0 0.0 0.0 0.0 -1.6151254241806922e-16 0.26661441160678767 -10.351704401454343 1.9944895604884214 0.26027775335434 27.569108698324683 -0.6902814246289903 -4.965644585306429e-32 -3.578124016646457e-15 -1.5902773407317584e-15
0.0 0.0 788.8514566978998 27.443358311043163 0.26196381834224375 2.742122200751488 0.0 0.0 -1.3666445896913547e-16 0.3982895711029907 -16.554691006103077 -2.9398245176901208 -2.4499987101357386 29.451409225888863 1.321013697818042 3.180554681463516e-15 -1.1034765745125397e-32 -3.975693351829395e-16 0.0 0.0 -1.3666445896913547e-16 0.24521336667747032 -10.450601818407868 5.70338685574887 5.511775632545949 5.574334092009121e-16 -8.228922141100417e-16 0.0 0.0 0.0 -18.369987811579392 26.732586284818396 66.18676843437781 -26.456615540005167 -1.1089039558019447e-14 1.1327758787027918e-15 0.0 0.0 -4.9696166897867436e-15 0.0 0.0 0.0 -15.768278184282533 -4.457803181242907 -0.7698621814589024 0.0 0.0 0.0 45.783663139620444 -55.192705571018635 11.330387384561297 89.31923572410793 2.208869975190734e-15 6.760216996635414e-15 1.5902773407317584e-15 3.1805546814635168e-15 -4.4139062980501586e-32 0.0 0.0 -1.3666445896913547e-16 0.23703758833085878 -10.225890348313676 1.9191338384456125 0.29759351771606163 27.517174764500638 -0.6477397929142448 -3.1805546814635168e-15 -3.975693351829396e-16 -1.1034765745125397e-32
